<?xml version="1.0" encoding="UTF-8" standalone="no"?>
<!DOCTYPE svg PUBLIC "-//W3C//DTD SVG 1.1//EN"
 "http://www.w3.org/Graphics/SVG/1.1/DTD/svg11.dtd">
<!-- Generated by graphviz version 2.43.0 (0)
 -->
<!-- Title: tfg Pages: 1 -->
<svg width="298pt" height="332pt"
 viewBox="0.00 0.00 297.84 332.00" xmlns="http://www.w3.org/2000/svg" xmlns:xlink="http://www.w3.org/1999/xlink">
<g id="graph0" class="graph" transform="scale(1 1) rotate(0) translate(4 328)">
<title>tfg</title>
<polygon fill="white" stroke="transparent" points="-4,4 -4,-328 293.84,-328 293.84,4 -4,4"/>
<!-- L0%0%d -->
<g id="node1" class="node">
<title>L0%0%d</title>
<ellipse fill="none" stroke="black" cx="119.19" cy="-306" rx="44.69" ry="18"/>
<text text-anchor="middle" x="119.19" y="-302.3" font-family="Times,serif" font-size="14.00">L0%0%d</text>
</g>
<!-- Lfor.cond%1%bbentry -->
<g id="node2" class="node">
<title>Lfor.cond%1%bbentry</title>
<ellipse fill="none" stroke="black" cx="119.19" cy="-234" rx="92.08" ry="18"/>
<text text-anchor="middle" x="119.19" y="-230.3" font-family="Times,serif" font-size="14.00">Lfor.cond%1%bbentry</text>
</g>
<!-- L0%0%d&#45;&gt;Lfor.cond%1%bbentry -->
<g id="edge1" class="edge">
<title>L0%0%d&#45;&gt;Lfor.cond%1%bbentry</title>
<path fill="none" stroke="black" d="M119.19,-287.7C119.19,-279.98 119.19,-270.71 119.19,-262.11"/>
<polygon fill="black" stroke="black" points="122.69,-262.1 119.19,-252.1 115.69,-262.1 122.69,-262.1"/>
</g>
<!-- Lfor.cond%2%d -->
<g id="node4" class="node">
<title>Lfor.cond%2%d</title>
<ellipse fill="none" stroke="black" cx="168.19" cy="-162" rx="69.59" ry="18"/>
<text text-anchor="middle" x="168.19" y="-158.3" font-family="Times,serif" font-size="14.00">Lfor.cond%2%d</text>
</g>
<!-- Lfor.cond%1%bbentry&#45;&gt;Lfor.cond%2%d -->
<g id="edge3" class="edge">
<title>Lfor.cond%1%bbentry&#45;&gt;Lfor.cond%2%d</title>
<path fill="none" stroke="black" d="M131.06,-216.05C136.89,-207.71 144.05,-197.49 150.52,-188.25"/>
<polygon fill="black" stroke="black" points="153.57,-189.99 156.44,-179.79 147.84,-185.97 153.57,-189.99"/>
</g>
<!-- Lfor.body%1%d -->
<g id="node3" class="node">
<title>Lfor.body%1%d</title>
<ellipse fill="none" stroke="black" cx="70.19" cy="-90" rx="70.39" ry="18"/>
<text text-anchor="middle" x="70.19" y="-86.3" font-family="Times,serif" font-size="14.00">Lfor.body%1%d</text>
</g>
<!-- Lfor.body%1%d&#45;&gt;Lfor.cond%1%bbentry -->
<g id="edge2" class="edge">
<title>Lfor.body%1%d&#45;&gt;Lfor.cond%1%bbentry</title>
<path fill="none" stroke="black" d="M72.28,-108.17C74.85,-126.42 80.06,-155.92 89.19,-180 92.72,-189.29 97.7,-198.91 102.59,-207.35"/>
<polygon fill="black" stroke="black" points="99.64,-209.23 107.8,-215.99 105.63,-205.62 99.64,-209.23"/>
</g>
<!-- Lfor.cond%2%d&#45;&gt;Lfor.body%1%d -->
<g id="edge4" class="edge">
<title>Lfor.cond%2%d&#45;&gt;Lfor.body%1%d</title>
<path fill="none" stroke="black" d="M145.46,-144.76C132.23,-135.31 115.36,-123.26 100.95,-112.97"/>
<polygon fill="black" stroke="black" points="102.97,-110.11 92.8,-107.15 98.9,-115.81 102.97,-110.11"/>
</g>
<!-- Lfor.end%1%d -->
<g id="node5" class="node">
<title>Lfor.end%1%d</title>
<ellipse fill="none" stroke="black" cx="224.19" cy="-90" rx="65.79" ry="18"/>
<text text-anchor="middle" x="224.19" y="-86.3" font-family="Times,serif" font-size="14.00">Lfor.end%1%d</text>
</g>
<!-- Lfor.cond%2%d&#45;&gt;Lfor.end%1%d -->
<g id="edge5" class="edge">
<title>Lfor.cond%2%d&#45;&gt;Lfor.end%1%d</title>
<path fill="none" stroke="black" d="M181.75,-144.05C188.56,-135.54 196.94,-125.07 204.45,-115.68"/>
<polygon fill="black" stroke="black" points="207.25,-117.78 210.76,-107.79 201.78,-113.41 207.25,-117.78"/>
</g>
<!-- E0%0%d -->
<g id="node6" class="node">
<title>E0%0%d</title>
<ellipse fill="none" stroke="black" cx="224.19" cy="-18" rx="44.69" ry="18"/>
<text text-anchor="middle" x="224.19" y="-14.3" font-family="Times,serif" font-size="14.00">E0%0%d</text>
</g>
<!-- Lfor.end%1%d&#45;&gt;E0%0%d -->
<g id="edge6" class="edge">
<title>Lfor.end%1%d&#45;&gt;E0%0%d</title>
<path fill="none" stroke="black" d="M224.19,-71.7C224.19,-63.98 224.19,-54.71 224.19,-46.11"/>
<polygon fill="black" stroke="black" points="227.69,-46.1 224.19,-36.1 220.69,-46.1 227.69,-46.1"/>
</g>
</g>
</svg>
